<svg width="20" height="31" viewBox="0 0 20 31" fill="none" xmlns="http://www.w3.org/2000/svg">
<path d="M2.43442 16.5535L14.5541 28.5687C14.8344 28.8468 15.2086 29 15.6076 29C16.0066 29 16.3808 28.8468 16.6611 28.5687L17.5536 27.684C18.1344 27.1076 18.1344 26.1707 17.5536 25.5952L7.37644 15.5056L17.5649 5.40483C17.8452 5.12671 18 4.75595 18 4.36061C18 3.96484 17.8452 3.59408 17.5649 3.31574L16.6724 2.43134C16.3919 2.15322 16.0179 2 15.6189 2C15.2199 2 14.8457 2.15322 14.5654 2.43134L2.43442 14.4574C2.15345 14.7364 1.99912 15.1089 2 15.5049C1.99912 15.9025 2.15345 16.2748 2.43442 16.5535Z" fill="white"/>
<path d="M1 15.5049C0.999112 16.1679 1.25911 16.7961 1.7301 17.2634L1.73039 17.2637L13.8498 29.2785C13.8499 29.2786 13.85 29.2787 13.8501 29.2788C14.3198 29.7447 14.9479 30 15.6076 30C16.2672 30 16.8953 29.7448 17.365 29.2789C17.3651 29.2789 17.3651 29.2788 17.3652 29.2788C17.3653 29.2787 17.3653 29.2786 17.3654 29.2785L18.2576 28.3943L18.2581 28.3938C19.2326 27.4266 19.2334 25.8521 18.2577 24.885C18.2576 24.885 18.2576 24.8849 18.2575 24.8849L8.7968 15.5056L18.269 6.11498L18.2692 6.11471C18.7385 5.64913 19 5.02296 19 4.36061C19 3.69792 18.7386 3.07188 18.2695 2.60614L18.2688 2.60541L17.3764 1.72118C17.3764 1.72112 17.3763 1.72107 17.3763 1.72101C16.9066 1.25544 16.2788 1 15.6189 1C14.9591 1 14.3308 1.25535 13.8611 1.72146L1.73039 13.7473L1.72982 13.7478C1.25943 14.2149 0.999111 14.843 1 15.5049ZM1 15.5049C1 15.5042 1.00001 15.5035 1.00001 15.5027L2 15.5049L1.00001 15.5072C1.00001 15.5064 1 15.5057 1 15.5049Z" stroke="black" stroke-opacity="0.14" stroke-width="2"/>
</svg>
