<svg width="20" height="31" viewBox="0 0 20 31" fill="none" xmlns="http://www.w3.org/2000/svg">
<path d="M17.5656 14.4465L5.4459 2.43134C5.16559 2.15322 4.7914 2 4.3924 2C3.99341 2 3.61922 2.15322 3.33891 2.43134L2.44638 3.31596C1.8656 3.8924 1.8656 4.82927 2.44638 5.40483L12.6236 15.4944L2.43508 25.5952C2.15477 25.8733 2 26.244 2 26.6394C2 27.0352 2.15477 27.4059 2.43508 27.6843L3.32761 28.5687C3.60815 28.8468 3.98212 29 4.38111 29C4.78011 29 5.1543 28.8468 5.43461 28.5687L17.5656 16.5426C17.8466 16.2636 18.0009 15.8911 18 15.4951C18.0009 15.0975 17.8466 14.7252 17.5656 14.4465Z" fill="white"/>
<path d="M19 15.4951C19.0009 14.8321 18.7409 14.2039 18.2699 13.7366L18.2696 13.7363L6.15023 1.72146C6.15013 1.72136 6.15004 1.72127 6.14994 1.72117C5.68019 1.25525 5.05206 1 4.3924 1C3.73279 1 3.10469 1.25522 2.63495 1.72109C2.63491 1.72113 2.63487 1.72117 2.63483 1.72121C2.63475 1.72129 2.63467 1.72138 2.63458 1.72146L1.74242 2.60572L1.74193 2.60621C0.767429 3.57342 0.766603 5.14788 1.74233 6.11498C1.74238 6.11503 1.74242 6.11507 1.74247 6.11512L11.2032 15.4944L1.73104 24.885L1.73076 24.8853C1.26152 25.3509 1 25.977 1 26.6394C1 27.3021 1.26144 27.9281 1.73048 28.3939L1.73122 28.3946L2.62357 29.2788C2.62363 29.2789 2.62369 29.2789 2.62375 29.279C3.09345 29.7446 3.72118 30 4.38111 30C5.0409 30 5.66916 29.7446 6.13894 29.2785L18.2696 17.2527L18.2702 17.2522C18.7406 16.7851 19.0009 16.157 19 15.4951ZM19 15.4951C19 15.4958 19 15.4965 19 15.4973L18 15.4951L19 15.4928C19 15.4936 19 15.4943 19 15.4951Z" stroke="black" stroke-opacity="0.14" stroke-width="2"/>
</svg>
